<svg preserveAspectRatio="none" overflow="visible" style="display: block;" width="19.1786" height="7.16379" viewBox="0 0 19.1786 7.16379" fill="none" xmlns="http://www.w3.org/2000/svg">
<g id="IBM_logo">
<g id="I">
<path id="Vector" d="M3.47198 6.66378H0V7.16257H3.47198V6.66378Z" fill="#1F70C1"/>
<path id="Vector_2" d="M3.47198 5.71128H0V6.21006H3.47198V5.71128Z" fill="#1F70C1"/>
<path id="Vector_3" d="M2.47979 4.75967H0.990514V5.25845H2.47979V4.75967Z" fill="#1F70C1"/>
<path id="Vector_4" d="M2.47979 3.80805H0.990514V4.30684H2.47979V3.80805Z" fill="#1F70C1"/>
<path id="Vector_5" d="M2.47979 2.85644H0.990514V3.35523H2.47979V2.85644Z" fill="#1F70C1"/>
<path id="Vector_6" d="M2.47979 1.90322H0.990514V2.40201H2.47979V1.90322Z" fill="#1F70C1"/>
<path id="Vector_7" d="M3.47198 0.951578H0V1.45037H3.47198V0.951578Z" fill="#1F70C1"/>
<path id="Vector_8" d="M3.47198 6.14761e-06H0V0.498794H3.47198V6.14761e-06Z" fill="#1F70C1"/>
</g>
<g id="B">
<path id="Vector_9" d="M3.96733 7.15807L7.66574 7.16337C8.16099 7.16337 8.60848 6.97235 8.94276 6.66458H3.96739L3.96733 7.15807Z" fill="#1F70C1"/>
<path id="Vector_10" d="M3.96733 6.21003H9.30718C9.39737 6.05615 9.46459 5.88812 9.50528 5.71124H3.9674L3.96733 6.21003Z" fill="#1F70C1"/>
<path id="Vector_11" d="M6.44702 4.75966H4.95951V5.25845H6.44702V4.75966Z" fill="#1F70C1"/>
<path id="Vector_12" d="M7.93626 4.75966V5.25845H9.55997C9.55997 5.08688 9.53697 4.91886 9.49275 4.75966H7.93626Z" fill="#1F70C1"/>
<path id="Vector_13" d="M8.89149 3.80805H4.95951V4.30684H9.30703C9.19382 4.1158 9.05408 3.94779 8.89137 3.80805H8.89149Z" fill="#1F70C1"/>
<path id="Vector_14" d="M4.95951 2.85644V3.35523H8.89149C9.05776 3.2155 9.19748 3.04746 9.30716 2.85644H4.95951Z" fill="#1F70C1"/>
<path id="Vector_15" d="M6.44702 1.90322H4.95951V2.40201H6.44702V1.90322Z" fill="#1F70C1"/>
<path id="Vector_16" d="M7.93626 2.40197H9.49275C9.53697 2.24279 9.55997 2.07476 9.55997 1.90319H7.93626V2.40197Z" fill="#1F70C1"/>
<path id="Vector_17" d="M9.30718 0.951576H3.96733V1.45036H9.50521C9.45923 1.27349 9.39202 1.10547 9.30712 0.951576H9.30718Z" fill="#1F70C1"/>
<path id="Vector_18" d="M7.66574 2.35056e-06H3.96733V0.49879H8.9411C8.60858 0.191021 8.15756 2.35056e-06 7.66585 2.35056e-06H7.66574Z" fill="#1F70C1"/>
</g>
<g id="M">
<path id="Vector_19" d="M9.92093 1.45036H13.262L13.0904 0.951576H9.92093V1.45036Z" fill="#1F70C1"/>
<path id="Vector_20" d="M9.9209 0.49879H12.9331L12.7614 2.35056e-06H9.9209V0.49879Z" fill="#1F70C1"/>
<path id="Vector_21" d="M15.3756 7.16378V6.66503H17.8572V7.16378H15.3756Z" fill="#1F70C1"/>
<path id="Vector_22" d="M15.3756 6.21003V5.71127H17.8572V6.21003H15.3756Z" fill="#1F70C1"/>
<path id="Vector_23" d="M13.8881 3.25966L13.7485 2.85644H12.4006H10.9113V3.35519H12.4006V2.89716L12.5581 3.35519H15.2183L15.3756 2.89716V3.35519H16.8649V2.85644H15.3756H14.0279L13.8881 3.25966Z" fill="#1F70C1"/>
<path id="Vector_24" d="M16.8649 1.90322H14.3568L14.1852 2.40197H16.8649V1.90322Z" fill="#1F70C1"/>
<path id="Vector_25" d="M17.8573 0.498788V0H15.0167L14.8451 0.498788H17.8573Z" fill="#1F70C1"/>
<path id="Vector_26" d="M13.7167 6.66467L13.8881 7.15806L14.0597 6.66467H13.7167Z" fill="#1F70C1"/>
<path id="Vector_27" d="M13.384 5.71127L13.5592 6.21003H14.2172L14.394 5.71127H13.384Z" fill="#1F70C1"/>
<path id="Vector_28" d="M13.0497 4.75966L13.2249 5.25841H14.5515L14.7265 4.75966H13.0497Z" fill="#1F70C1"/>
<path id="Vector_29" d="M12.8924 4.3068H14.8858L15.0556 3.80805H12.7208L12.8924 4.3068Z" fill="#1F70C1"/>
<path id="Vector_30" d="M10.9113 2.40197H13.591L13.4195 1.90322H10.9113V2.40197Z" fill="#1F70C1"/>
<path id="Vector_31" d="M17.8572 0.951576H14.6858L14.5161 1.45036H17.8572V0.951576Z" fill="#1F70C1"/>
<path id="Vector_32" d="M12.4025 6.66467H9.92093V7.16346H12.4025V6.66467Z" fill="#1F70C1"/>
<path id="Vector_33" d="M12.4025 5.71127H9.92093V6.21006H12.4025V5.71127Z" fill="#1F70C1"/>
<path id="Vector_34" d="M12.4006 4.75966H10.9113V5.25845H12.4006V4.75966Z" fill="#1F70C1"/>
<path id="Vector_35" d="M12.4006 3.80805H10.9113V4.30684H12.4006V3.80805Z" fill="#1F70C1"/>
<path id="Vector_36" d="M16.8649 3.80805H15.3756V4.30684H16.8649V3.80805Z" fill="#1F70C1"/>
<path id="Vector_37" d="M16.8649 4.75966H15.3756V5.25845H16.8649V4.75966Z" fill="#1F70C1"/>
</g>
<path id="Registered" d="M18.7858 6.37771C18.6816 6.37771 18.5816 6.4191 18.508 6.49277C18.4343 6.56645 18.3929 6.66637 18.3929 6.77057C18.3929 6.87476 18.4343 6.97469 18.508 7.04836C18.5816 7.12204 18.6816 7.16343 18.7858 7.16343C18.89 7.16343 18.9899 7.12204 19.0636 7.04836C19.1372 6.97469 19.1786 6.87476 19.1786 6.77057C19.1786 6.66637 19.1372 6.56645 19.0636 6.49277C18.9899 6.4191 18.89 6.37771 18.7858 6.37771ZM18.7858 6.44914C18.871 6.44914 18.9528 6.483 19.013 6.54328C19.0733 6.60356 19.1072 6.68532 19.1072 6.77057C19.1072 6.85582 19.0733 6.93757 19.013 6.99785C18.9528 7.05813 18.871 7.092 18.7858 7.092C18.7005 7.092 18.6188 7.05813 18.5585 6.99785C18.4982 6.93757 18.4643 6.85582 18.4643 6.77057C18.4643 6.68532 18.4982 6.60356 18.5585 6.54328C18.6188 6.483 18.7005 6.44914 18.7858 6.44914ZM18.6188 6.57044V6.97069H18.7162V6.83265H18.7715L18.8459 6.97069H18.9527L18.863 6.81744C18.9069 6.80022 18.9355 6.76002 18.9355 6.69691C18.9355 6.62402 18.8898 6.57044 18.8001 6.57044H18.6188ZM18.7162 6.64703H18.7886C18.8192 6.64703 18.8363 6.66043 18.8363 6.6891V6.7179C18.8363 6.74657 18.8192 6.76004 18.7886 6.76004H18.7162V6.64703Z" fill="#1F70C1"/>
</g>
</svg>
